<?xml version="1.0" encoding="iso-8859-1"?>
<!-- Generator: Adobe Illustrator 16.0.0, SVG Export Plug-In . SVG Version: 6.00 Build 0)  -->
<!DOCTYPE svg PUBLIC "-//W3C//DTD SVG 1.1//EN" "http://www.w3.org/Graphics/SVG/1.1/DTD/svg11.dtd">
<svg version="1.1" id="Capa_1" xmlns="http://www.w3.org/2000/svg" xmlns:xlink="http://www.w3.org/1999/xlink" x="0px" y="0px"
	 width="34.618px" height="34.617px" viewBox="0 0 34.618 34.617" style="enable-background:new 0 0 34.618 34.617;"
	 xml:space="preserve">
<g>
	<g>
		<path d="M29.162,17.312c0.435-0.467,0.85-0.934,1.217-1.4c2.272-2.89,2.956-5.466,1.921-7.259
			c-0.808-1.396-2.546-2.136-5.028-2.136c-1.213,0-2.584,0.195-4.037,0.532C21.915,2.756,19.775,0,17.309,0
			c-2.467,0-4.606,2.756-5.927,7.051C9.93,6.714,8.559,6.519,7.346,6.519c-2.483,0-4.221,0.739-5.027,2.137
			c-1.034,1.792-0.353,4.368,1.92,7.258c0.367,0.467,0.782,0.934,1.216,1.399c-3.055,3.289-4.369,6.516-3.137,8.652
			C3.125,27.361,4.861,28.1,7.345,28.1c1.213,0,2.584-0.195,4.037-0.531c1.319,4.293,3.459,7.049,5.926,7.049
			c2.465,0,4.606-2.756,5.925-7.051c1.452,0.338,2.823,0.533,4.037,0.533c2.482,0,4.222-0.74,5.028-2.137
			C33.532,23.828,32.217,20.602,29.162,17.312z M31.146,25.297c-0.702,1.215-2.495,1.471-3.875,1.471
			c-1.104,0-2.354-0.178-3.681-0.48c0.298-1.178,0.518-2.471,0.691-3.816c-0.313,0.096-0.64,0.164-0.982,0.164h-0.353
			c-0.162,1.191-0.375,2.305-0.631,3.324c-0.242-0.068-0.495-0.158-0.742-0.236c-0.457,0.428-1.028,0.729-1.667,0.846
			c0.693,0.248,1.383,0.477,2.056,0.668c-1.171,3.799-2.946,6.049-4.653,6.049c-1.708,0-3.482-2.25-4.654-6.047
			c0.673-0.193,1.363-0.422,2.058-0.67c-0.64-0.117-1.212-0.418-1.668-0.846c-0.248,0.078-0.501,0.168-0.744,0.236
			c-0.255-1.021-0.469-2.133-0.63-3.324h-0.353c-0.344,0-0.669-0.068-0.982-0.166c0.173,1.348,0.394,2.641,0.691,3.816
			c-1.326,0.305-2.577,0.482-3.68,0.482c-1.38,0-3.172-0.256-3.874-1.473c-0.853-1.477,0.206-4.135,2.904-7.044
			c0.516,0.499,1.074,0.993,1.655,1.479C8.015,19.59,7.99,19.451,7.99,19.305v-1.384c-0.228-0.207-0.465-0.411-0.681-0.62
			c0.213-0.207,0.453-0.415,0.681-0.622V15.31c0-0.146,0.025-0.285,0.043-0.425c-0.581,0.488-1.136,0.98-1.644,1.475
			c-0.393-0.423-0.769-0.848-1.102-1.271c-1.885-2.397-2.546-4.5-1.813-5.77c0.701-1.215,2.494-1.47,3.874-1.47
			c1.103,0,2.354,0.177,3.68,0.48c-0.298,1.178-0.518,2.471-0.69,3.816c0.312-0.098,0.638-0.165,0.981-0.165h0.353
			c0.163-1.191,0.375-2.304,0.63-3.324c0.244,0.068,0.496,0.158,0.744,0.236c0.456-0.427,1.028-0.728,1.667-0.846
			c-0.695-0.249-1.384-0.479-2.057-0.669C13.828,3.58,15.602,1.33,17.31,1.33c1.708,0,3.482,2.25,4.653,6.048
			c-0.672,0.191-1.362,0.421-2.058,0.67c0.64,0.118,1.212,0.418,1.669,0.846c0.248-0.078,0.5-0.168,0.743-0.236
			c0.256,1.021,0.469,2.133,0.631,3.324H23.3c0.344,0,0.669,0.067,0.981,0.165c-0.174-1.347-0.394-2.639-0.69-3.816
			c1.327-0.305,2.577-0.481,3.681-0.481c1.38,0,3.174,0.255,3.875,1.47c0.733,1.271,0.072,3.372-1.813,5.77
			c-0.333,0.424-0.709,0.849-1.104,1.271c-0.508-0.493-1.062-0.985-1.644-1.475c0.018,0.141,0.043,0.28,0.043,0.425v1.368
			c0.228,0.208,0.468,0.416,0.681,0.623c-0.215,0.207-0.454,0.413-0.681,0.62v1.384c0,0.146-0.025,0.287-0.043,0.428
			c0.581-0.488,1.14-0.982,1.655-1.482C30.94,21.162,32,23.82,31.146,25.297z"/>
		<path d="M23.465,14.646h-2.994c-0.274,0-0.5-0.225-0.5-0.5v-2.994c0-0.274-0.225-0.5-0.5-0.5h-4.326c-0.275,0-0.5,0.226-0.5,0.5
			v2.994c0,0.275-0.225,0.5-0.5,0.5H11.15c-0.275,0-0.5,0.226-0.5,0.5v4.327c0,0.273,0.225,0.5,0.5,0.5h2.995
			c0.275,0,0.5,0.225,0.5,0.5v2.994c0,0.273,0.225,0.5,0.5,0.5h4.326c0.275,0,0.5-0.227,0.5-0.5v-2.996c0-0.275,0.226-0.5,0.5-0.5
			h2.994c0.275,0,0.5-0.225,0.5-0.5v-4.326C23.965,14.871,23.741,14.646,23.465,14.646z"/>
	</g>
</g>
<g>
</g>
<g>
</g>
<g>
</g>
<g>
</g>
<g>
</g>
<g>
</g>
<g>
</g>
<g>
</g>
<g>
</g>
<g>
</g>
<g>
</g>
<g>
</g>
<g>
</g>
<g>
</g>
<g>
</g>
</svg>
